G04 #@! TF.FileFunction,Soldermask,Top*
%FSLAX46Y46*%
G04 Gerber Fmt 4.6, Leading zero omitted, Abs format (unit mm)*
G04 Created by KiCad (PCBNEW 4.0.7) date 07/06/18 10:56:57*
%MOMM*%
%LPD*%
G01*
G04 APERTURE LIST*
%ADD10C,0.100000*%
%ADD11C,3.600000*%
%ADD12R,2.100000X2.100000*%
%ADD13O,2.100000X2.100000*%
%ADD14R,1.400000X0.770000*%
%ADD15R,0.770000X1.400000*%
%ADD16R,1.462500X1.462500*%
%ADD17R,1.650000X1.400000*%
%ADD18R,1.150000X1.200000*%
%ADD19R,0.850000X1.780000*%
%ADD20R,1.875000X2.500000*%
%ADD21R,2.775000X2.300000*%
%ADD22R,1.575000X2.300000*%
%ADD23R,1.780000X0.850000*%
%ADD24R,2.500000X1.875000*%
%ADD25R,2.300000X2.775000*%
%ADD26R,2.300000X1.575000*%
%ADD27C,1.800000*%
%ADD28R,1.300000X1.200000*%
%ADD29R,1.300000X0.900000*%
%ADD30R,0.900000X1.300000*%
%ADD31R,1.400000X1.650000*%
%ADD32R,1.200000X1.150000*%
G04 APERTURE END LIST*
D10*
D11*
X111455200Y-110464600D03*
X58166000Y-115341400D03*
D12*
X49784000Y-73152000D03*
D13*
X52324000Y-73152000D03*
X54864000Y-73152000D03*
X57404000Y-73152000D03*
X59944000Y-73152000D03*
X62484000Y-73152000D03*
D14*
X54808000Y-88220000D03*
X54808000Y-88870000D03*
X54808000Y-89520000D03*
X54808000Y-90170000D03*
X54808000Y-90820000D03*
X54808000Y-91470000D03*
X54808000Y-92120000D03*
D15*
X55708000Y-93020000D03*
X56358000Y-93020000D03*
X57008000Y-93020000D03*
X57658000Y-93020000D03*
X58308000Y-93020000D03*
X58958000Y-93020000D03*
X59608000Y-93020000D03*
D14*
X60508000Y-92120000D03*
X60508000Y-91470000D03*
X60508000Y-90820000D03*
X60508000Y-90170000D03*
X60508000Y-89520000D03*
X60508000Y-88870000D03*
X60508000Y-88220000D03*
D15*
X59608000Y-87320000D03*
X58958000Y-87320000D03*
X58308000Y-87320000D03*
X57658000Y-87320000D03*
X57008000Y-87320000D03*
X56358000Y-87320000D03*
X55708000Y-87320000D03*
D16*
X59251750Y-91763750D03*
X59251750Y-90701250D03*
X59251750Y-89638750D03*
X59251750Y-88576250D03*
X58189250Y-91763750D03*
X58189250Y-90701250D03*
X58189250Y-89638750D03*
X58189250Y-88576250D03*
X57126750Y-91763750D03*
X57126750Y-90701250D03*
X57126750Y-89638750D03*
X57126750Y-88576250D03*
X56064250Y-91763750D03*
X56064250Y-90701250D03*
X56064250Y-89638750D03*
X56064250Y-88576250D03*
D17*
X57150000Y-97774000D03*
X57150000Y-95774000D03*
D18*
X55372000Y-95770000D03*
X55372000Y-97270000D03*
D19*
X49246000Y-133484000D03*
X49896000Y-133484000D03*
X50546000Y-133484000D03*
X51196000Y-133484000D03*
X51846000Y-133484000D03*
D20*
X48083500Y-133844000D03*
X53008500Y-133844000D03*
D21*
X47636000Y-136144000D03*
X53456000Y-136144000D03*
D22*
X49706000Y-136144000D03*
X51386000Y-136144000D03*
D12*
X74676000Y-132842000D03*
D13*
X72136000Y-132842000D03*
X69596000Y-132842000D03*
X67056000Y-132842000D03*
X64516000Y-132842000D03*
X61976000Y-132842000D03*
D12*
X104902000Y-132842000D03*
D13*
X102362000Y-132842000D03*
X99822000Y-132842000D03*
X97282000Y-132842000D03*
X94742000Y-132842000D03*
X92202000Y-132842000D03*
D23*
X41014000Y-99792000D03*
X41014000Y-100442000D03*
X41014000Y-101092000D03*
X41014000Y-101742000D03*
X41014000Y-102392000D03*
D24*
X40654000Y-98629500D03*
X40654000Y-103554500D03*
D25*
X38354000Y-98182000D03*
X38354000Y-104002000D03*
D26*
X38354000Y-100252000D03*
X38354000Y-101932000D03*
D12*
X117348000Y-99568000D03*
D13*
X117348000Y-102108000D03*
D12*
X117602000Y-119888000D03*
D13*
X117602000Y-122428000D03*
D27*
X97536000Y-96520000D03*
X100736000Y-96520000D03*
X97536000Y-99720000D03*
X97536000Y-101920000D03*
X97536000Y-104120000D03*
X100736000Y-99720000D03*
X100736000Y-101920000D03*
X100736000Y-104120000D03*
X97536000Y-116586000D03*
X100736000Y-116586000D03*
X97536000Y-119786000D03*
X97536000Y-121986000D03*
X97536000Y-124186000D03*
X100736000Y-119786000D03*
X100736000Y-121986000D03*
X100736000Y-124186000D03*
D28*
X98060000Y-90490000D03*
X98060000Y-92390000D03*
X100060000Y-91440000D03*
X98314000Y-110302000D03*
X98314000Y-112202000D03*
X100314000Y-111252000D03*
D29*
X96012000Y-91936000D03*
X96012000Y-90436000D03*
X96266000Y-111748000D03*
X96266000Y-110248000D03*
X58928000Y-82562000D03*
X58928000Y-84062000D03*
X60452000Y-84062000D03*
X60452000Y-82562000D03*
D12*
X117602000Y-129286000D03*
D13*
X117602000Y-126746000D03*
D30*
X65774000Y-90678000D03*
X64274000Y-90678000D03*
X65774000Y-89154000D03*
X64274000Y-89154000D03*
D31*
X66278000Y-95758000D03*
X64278000Y-95758000D03*
D32*
X64274000Y-93980000D03*
X65774000Y-93980000D03*
D31*
X51546000Y-129286000D03*
X49546000Y-129286000D03*
D12*
X40132000Y-73406000D03*
D13*
X40132000Y-75946000D03*
X40132000Y-78486000D03*
X40132000Y-81026000D03*
X40132000Y-83566000D03*
X40132000Y-86106000D03*
D12*
X73660000Y-76962000D03*
D13*
X73660000Y-79502000D03*
X73660000Y-82042000D03*
X73660000Y-84582000D03*
X73660000Y-87122000D03*
X73660000Y-89662000D03*
D12*
X40182800Y-108788200D03*
D13*
X40182800Y-111328200D03*
X40182800Y-113868200D03*
X40182800Y-116408200D03*
X40182800Y-118948200D03*
X40182800Y-121488200D03*
X40182800Y-124028200D03*
X40182800Y-126568200D03*
X40182800Y-129108200D03*
X40182800Y-131648200D03*
D12*
X46710600Y-116332000D03*
D13*
X46710600Y-118872000D03*
X46710600Y-121412000D03*
X46710600Y-123952000D03*
X46710600Y-126492000D03*
D30*
X42811000Y-131673600D03*
X44311000Y-131673600D03*
D11*
X112064800Y-75615800D03*
D10*
G36*
X54398891Y-83350147D02*
X53479653Y-82430909D01*
X54116049Y-81794513D01*
X55035287Y-82713751D01*
X54398891Y-83350147D01*
X54398891Y-83350147D01*
G37*
G36*
X55459551Y-82289487D02*
X54540313Y-81370249D01*
X55176709Y-80733853D01*
X56095947Y-81653091D01*
X55459551Y-82289487D01*
X55459551Y-82289487D01*
G37*
M02*
