M48
;DRILL file {KiCad 4.0.7} date 07/06/18 12:37:34
;FORMAT={-:-/ absolute / inch / decimal}
FMAT,2
INCH,TZ
T1C0.016
T2C0.028
T3C0.039
T4C0.126
%
G90
G05
M72
T1
X1.67Y-4.06
X1.67Y-4.12
X1.72Y-4.04
X1.72Y-4.12
X1.82Y-5.15
X1.9Y-3.49
X2.03Y-3.57
X2.04Y-3.29
X2.05Y-3.23
X2.0727Y-5.1408
X2.0891Y-5.1932
X2.09Y-5.09
X2.14Y-3.72
X2.1409Y-5.12
X2.1409Y-5.1842
X2.18Y-3.88
X2.19Y-3.72
X2.21Y-3.26
X2.24Y-3.72
X2.25Y-3.9
X2.32Y-3.2
X2.39Y-3.11
X2.39Y-3.16
X2.43Y-3.31
X2.45Y-3.62
X2.48Y-3.51
X2.49Y-3.55
X2.5Y-4.95
X2.56Y-4.95
X2.59Y-3.36
X2.66Y-3.7
X2.67Y-3.77
X2.73Y-3.97
X2.76Y-3.94
X3.2Y-5.3
X3.62Y-3.73
X3.62Y-4.12
X3.77Y-3.7
X3.79Y-4.45
X3.8Y-3.67
X3.82Y-4.48
X3.84Y-3.7
X3.87Y-4.46
T2
X3.84Y-3.8
X3.84Y-3.926
X3.84Y-4.0126
X3.84Y-4.0992
X3.84Y-4.59
X3.84Y-4.716
X3.84Y-4.8026
X3.84Y-4.8892
X3.966Y-3.8
X3.966Y-3.926
X3.966Y-4.0126
X3.966Y-4.0992
X3.966Y-4.59
X3.966Y-4.716
X3.966Y-4.8026
X3.966Y-4.8892
T3
X1.58Y-2.89
X1.58Y-2.99
X1.58Y-3.09
X1.58Y-3.19
X1.58Y-3.29
X1.58Y-3.39
X1.582Y-4.283
X1.582Y-4.383
X1.582Y-4.483
X1.582Y-4.583
X1.582Y-4.683
X1.582Y-4.783
X1.582Y-4.883
X1.582Y-4.983
X1.582Y-5.083
X1.582Y-5.183
X1.839Y-4.58
X1.839Y-4.68
X1.839Y-4.78
X1.839Y-4.88
X1.839Y-4.98
X1.96Y-2.88
X2.06Y-2.88
X2.16Y-2.88
X2.26Y-2.88
X2.36Y-2.88
X2.44Y-5.23
X2.46Y-2.88
X2.54Y-5.23
X2.64Y-5.23
X2.74Y-5.23
X2.84Y-5.23
X2.9Y-3.03
X2.9Y-3.13
X2.9Y-3.23
X2.9Y-3.33
X2.9Y-3.43
X2.9Y-3.53
X2.94Y-5.23
X3.63Y-5.23
X3.73Y-5.23
X3.83Y-5.23
X3.93Y-5.23
X4.03Y-5.23
X4.13Y-5.23
X4.62Y-3.92
X4.62Y-4.02
X4.63Y-4.72
X4.63Y-4.82
X4.63Y-4.99
X4.63Y-5.09
T4
X2.29Y-4.541
X4.388Y-4.349
X4.412Y-2.977
T0
M30
